<svg width="22" height="16" viewBox="0 0 22 16" fill="none" xmlns="http://www.w3.org/2000/svg">
<path fill-rule="evenodd" clip-rule="evenodd" d="M11.0923 0.522705C6.35039 0.522705 2.30084 3.53535 0.660156 7.78791C2.30084 12.0405 6.35039 15.0531 11.0923 15.0531C15.8341 15.0531 19.8837 12.0405 21.5243 7.78791C19.8837 3.53535 15.8341 0.522705 11.0923 0.522705ZM11.0922 12.6319C8.47467 12.6319 6.35032 10.462 6.35032 7.78845C6.35032 5.11485 8.47467 2.94498 11.0922 2.94498C13.7097 2.94498 15.834 5.11485 15.834 7.78845C15.834 10.462 13.7097 12.6319 11.0922 12.6319ZM8.24726 7.78812C8.24726 6.18009 9.51808 4.88204 11.0924 4.88204C12.6667 4.88204 13.9375 6.18009 13.9375 7.78812C13.9375 9.39615 12.6667 10.6942 11.0924 10.6942C9.51808 10.6942 8.24726 9.39615 8.24726 7.78812Z" fill="#002B49"/>
</svg>
